<svg width="24" height="25" viewBox="0 0 24 25" fill="none" xmlns="http://www.w3.org/2000/svg">
<g id="Check">
<path id="Vector" d="M20.3513 8.01349L10.0098 18.3549C9.91823 18.4473 9.79355 18.4992 9.66348 18.4992C9.53341 18.4992 9.40873 18.4473 9.31714 18.3549L4.0586 13.0964C3.96625 13.0049 3.91431 12.8802 3.91431 12.75C3.91431 12.62 3.96625 12.4953 4.0586 12.4037L4.74153 11.7208C4.83312 11.6285 4.9578 11.5765 5.08787 11.5765C5.21794 11.5765 5.34262 11.6285 5.43421 11.7208L9.6586 15.9452L18.9757 6.62813C19.1686 6.44101 19.4754 6.44101 19.6684 6.62813L20.3513 7.32081C20.4437 7.4124 20.4956 7.53708 20.4956 7.66715C20.4956 7.79722 20.4437 7.92189 20.3513 8.01349Z" fill="#3D3A41"/>
</g>
</svg>
