<svg width="144" height="29" viewBox="0 0 144 29" fill="none" xmlns="http://www.w3.org/2000/svg">
<g id="Logo" clip-path="url(#clip0_11_1518)">
<path id="Vector" d="M43.2659 21.966V7.20508H46.0302V19.4356H52.7315V21.966H43.2659Z" fill="white"/>
<path id="Vector_2" d="M58.6995 22.2611C57.6664 22.2611 56.738 22.0502 55.9143 21.6284C55.0905 21.2067 54.4413 20.5952 53.9667 19.7939C53.492 18.9926 53.2547 18.0296 53.2547 16.9049V16.5675C53.2547 15.4429 53.492 14.4799 53.9667 13.6786C54.4413 12.8773 55.0905 12.2658 55.9143 11.844C56.738 11.4223 57.6664 11.2114 58.6995 11.2114C59.7326 11.2114 60.6611 11.4223 61.4848 11.844C62.3084 12.2658 62.9576 12.8773 63.4324 13.6786C63.907 14.4799 64.1443 15.4429 64.1443 16.5675V16.9049C64.1443 18.0296 63.907 18.9926 63.4324 19.7939C62.9576 20.5952 62.3084 21.2067 61.4848 21.6284C60.6611 22.0502 59.7326 22.2611 58.6995 22.2611ZM58.6995 19.8993C59.5092 19.8993 60.1794 19.6392 60.7099 19.1191C61.2404 18.5849 61.5057 17.8257 61.5057 16.8417V16.6308C61.5057 15.6467 61.2404 14.8946 60.7099 14.3744C60.1933 13.8403 59.5232 13.5731 58.6995 13.5731C57.8898 13.5731 57.2197 13.8403 56.6891 14.3744C56.1586 14.8946 55.8933 15.6467 55.8933 16.6308V16.8417C55.8933 17.8257 56.1586 18.5849 56.6891 19.1191C57.2197 19.6392 57.8898 19.8993 58.6995 19.8993Z" fill="white"/>
<path id="Vector_3" d="M65.1349 16.7784V16.441C65.1349 15.3445 65.3512 14.4096 65.7841 13.6364C66.2169 12.8492 66.7893 12.2517 67.5013 11.844C68.2273 11.4223 69.016 11.2114 69.8677 11.2114C70.817 11.2114 71.536 11.3801 72.0247 11.7175C72.5134 12.0549 72.8693 12.4063 73.0927 12.7718H73.4697V11.5066H76.0665V23.8214C76.0665 24.5385 75.857 25.1078 75.4382 25.5295C75.0193 25.9654 74.461 26.1832 73.7628 26.1832H66.8102V23.8637H72.8414C73.2324 23.8637 73.4278 23.6528 73.4278 23.231V20.5108H73.0508C72.9112 20.7358 72.7158 20.9677 72.4645 21.2067C72.2132 21.4316 71.8781 21.6214 71.4593 21.776C71.0404 21.9306 70.51 22.008 69.8677 22.008C69.016 22.008 68.2273 21.8041 67.5013 21.3965C66.7893 20.9747 66.2169 20.3772 65.7841 19.604C65.3512 18.8169 65.1349 17.8749 65.1349 16.7784ZM70.6216 19.6884C71.4314 19.6884 72.1084 19.4283 72.6529 18.9082C73.1974 18.388 73.4697 17.657 73.4697 16.7152V16.5043C73.4697 15.5483 73.1974 14.8173 72.6529 14.3112C72.1224 13.7911 71.4453 13.531 70.6216 13.531C69.8118 13.531 69.1348 13.7911 68.5903 14.3112C68.0458 14.8173 67.7735 15.5483 67.7735 16.5043V16.7152C67.7735 17.657 68.0458 18.388 68.5903 18.9082C69.1348 19.4283 69.8118 19.6884 70.6216 19.6884Z" fill="white"/>
<path id="Vector_4" d="M82.9917 22.2611C81.9585 22.2611 81.0301 22.0502 80.2063 21.6284C79.3827 21.2067 78.7335 20.5952 78.2588 19.7939C77.7842 18.9926 77.5468 18.0296 77.5468 16.9049V16.5675C77.5468 15.4429 77.7842 14.4799 78.2588 13.6786C78.7335 12.8773 79.3827 12.2658 80.2063 11.844C81.0301 11.4223 81.9585 11.2114 82.9917 11.2114C84.0248 11.2114 84.9531 11.4223 85.7769 11.844C86.6006 12.2658 87.2497 12.8773 87.7245 13.6786C88.1992 14.4799 88.4365 15.4429 88.4365 16.5675V16.9049C88.4365 18.0296 88.1992 18.9926 87.7245 19.7939C87.2497 20.5952 86.6006 21.2067 85.7769 21.6284C84.9531 22.0502 84.0248 22.2611 82.9917 22.2611ZM82.9917 19.8993C83.8014 19.8993 84.4715 19.6392 85.002 19.1191C85.5325 18.5849 85.7978 17.8257 85.7978 16.8417V16.6308C85.7978 15.6467 85.5325 14.8946 85.002 14.3744C84.4855 13.8403 83.8153 13.5731 82.9917 13.5731C82.1818 13.5731 81.5118 13.8403 80.9812 14.3744C80.4507 14.8946 80.1855 15.6467 80.1855 16.6308V16.8417C80.1855 17.8257 80.4507 18.5849 80.9812 19.1191C81.5118 19.6392 82.1818 19.8993 82.9917 19.8993Z" fill="white"/>
<path id="Vector_5" d="M89.9295 21.9658V11.5066H92.5684V21.9658H89.9295ZM91.249 10.2836C90.7738 10.2836 90.3697 10.1289 90.034 9.81965C89.7132 9.51043 89.5526 9.10271 89.5526 8.59663C89.5526 8.09055 89.7132 7.68286 90.034 7.37359C90.3697 7.06431 90.7738 6.90967 91.249 6.90967C91.7377 6.90967 92.1427 7.06431 92.4631 7.37359C92.7844 7.68286 92.9455 8.09055 92.9455 8.59663C92.9455 9.10271 92.7844 9.51043 92.4631 9.81965C92.1427 10.1289 91.7377 10.2836 91.249 10.2836Z" fill="white"/>
<path id="Vector_6" d="M94.5501 26.1832V11.5066H97.1466V12.7718H97.5237C97.7604 12.3642 98.1303 12.0057 98.6334 11.6964C99.1356 11.3731 99.8547 11.2114 100.791 11.2114C101.628 11.2114 102.403 11.4223 103.115 11.844C103.827 12.2517 104.4 12.8562 104.832 13.6575C105.265 14.4588 105.482 15.4288 105.482 16.5675V16.9049C105.482 18.0436 105.265 19.0136 104.832 19.8149C104.4 20.6162 103.827 21.2278 103.115 21.6495C102.403 22.0572 101.628 22.2611 100.791 22.2611C100.163 22.2611 99.6315 22.1838 99.1986 22.0291C98.7801 21.8885 98.4381 21.7057 98.1726 21.4808C97.9215 21.2418 97.719 21.0028 97.5651 20.7638H97.188V26.1832H94.5501ZM99.9942 19.9414C100.819 19.9414 101.495 19.6814 102.026 19.1612C102.57 18.627 102.843 17.8539 102.843 16.8417V16.6308C102.843 15.6186 102.57 14.8525 102.026 14.3323C101.481 13.798 100.804 13.531 99.9942 13.531C99.1851 13.531 98.5074 13.798 97.9629 14.3323C97.4184 14.8525 97.1466 15.6186 97.1466 16.6308V16.8417C97.1466 17.8539 97.4184 18.627 97.9629 19.1612C98.5074 19.6814 99.1851 19.9414 99.9942 19.9414Z" fill="white"/>
<path id="Vector_7" d="M111.276 22.2611C109.922 22.2611 108.812 21.9658 107.946 21.3754C107.081 20.785 106.558 19.9414 106.376 18.845L108.805 18.2123C108.903 18.7044 109.063 19.0909 109.287 19.3721C109.524 19.6532 109.81 19.8571 110.146 19.9837C110.494 20.0961 110.871 20.1523 111.276 20.1523C111.891 20.1523 112.345 20.0469 112.637 19.836C112.93 19.6111 113.077 19.337 113.077 19.0136C113.077 18.6903 112.938 18.4443 112.659 18.2756C112.379 18.0929 111.932 17.9452 111.319 17.8328L110.732 17.7273C110.005 17.5867 109.343 17.3969 108.743 17.158C108.142 16.9049 107.66 16.5605 107.297 16.1247C106.935 15.6889 106.753 15.1266 106.753 14.4378C106.753 13.3974 107.13 12.6032 107.884 12.0549C108.637 11.4925 109.629 11.2114 110.858 11.2114C112.016 11.2114 112.98 11.4714 113.748 11.9916C114.515 12.5118 115.018 13.1936 115.255 14.0371L112.805 14.7962C112.694 14.262 112.463 13.8824 112.114 13.6575C111.778 13.4326 111.36 13.3201 110.858 13.3201C110.355 13.3201 109.971 13.4115 109.706 13.5942C109.44 13.763 109.308 14.002 109.308 14.3112C109.308 14.6486 109.447 14.9017 109.726 15.0703C110.005 15.2249 110.383 15.3445 110.858 15.4288L111.444 15.5342C112.226 15.6748 112.93 15.8647 113.559 16.1036C114.201 16.3286 114.703 16.6589 115.067 17.0947C115.443 17.5165 115.632 18.0929 115.632 18.8238C115.632 19.9204 115.234 20.7709 114.439 21.3754C113.657 21.9658 112.603 22.2611 111.276 22.2611Z" fill="white"/>
<path id="Vector_8" d="M120.96 22.1343C120.15 22.1343 119.438 21.9515 118.824 21.586C118.223 21.2065 117.756 20.6863 117.42 20.0256C117.086 19.3648 116.918 18.6057 116.918 17.7481V11.5063H119.557V17.5373C119.557 18.3245 119.745 18.9149 120.122 19.3086C120.513 19.7022 121.065 19.899 121.776 19.899C122.586 19.899 123.215 19.632 123.661 19.0977C124.108 18.5495 124.332 17.7903 124.332 16.8203V11.5063H126.97V21.9656H124.373V20.5949H123.997C123.829 20.9464 123.514 21.2908 123.054 21.6282C122.594 21.9656 121.895 22.1343 120.96 22.1343Z" fill="white"/>
<path id="Vector_9" d="M128.964 21.9658V11.5065H131.56V12.6452H131.937C132.119 12.2938 132.42 11.9916 132.838 11.7385C133.257 11.4714 133.808 11.3379 134.492 11.3379C135.232 11.3379 135.826 11.4855 136.273 11.7807C136.719 12.0619 137.061 12.4344 137.299 12.8984H137.676C137.913 12.4485 138.248 12.0759 138.681 11.7807C139.114 11.4855 139.728 11.3379 140.523 11.3379C141.166 11.3379 141.745 11.4784 142.262 11.7597C142.792 12.0267 143.212 12.4414 143.518 13.0038C143.84 13.552 144 14.2479 144 15.0914V21.9658H141.361V15.2812C141.361 14.7048 141.214 14.276 140.922 13.9948C140.629 13.6997 140.216 13.552 139.686 13.552C139.086 13.552 138.618 13.7488 138.283 14.1425C137.962 14.522 137.802 15.0703 137.802 15.7872V21.9658H135.163V15.2812C135.163 14.7048 135.016 14.276 134.723 13.9948C134.429 13.6997 134.018 13.552 133.487 13.552C132.887 13.552 132.419 13.7488 132.084 14.1425C131.763 14.522 131.602 15.0703 131.602 15.7872V21.9658H128.964Z" fill="white"/>
<path id="Vector_10" d="M34.9031 14.0584C34.9031 10.3299 33.4322 6.75405 30.8139 4.1176C28.1956 1.48115 24.6445 4.88936e-07 20.9417 0C17.2389 -4.88934e-07 13.6878 1.48115 11.0695 4.1176C8.45122 6.75405 6.98029 10.3299 6.98029 14.0584H11.3433C12.789 14.0584 13.9166 12.8384 14.4461 11.4837C14.7938 10.5943 15.3214 9.77699 16.0056 9.08797C17.3147 7.76975 19.0903 7.02918 20.9417 7.02918C22.7931 7.02918 24.5687 7.76975 25.8778 9.08797C27.187 10.4062 27.9224 12.1941 27.9224 14.0584H34.9031Z" fill="url(#paint0_linear_11_1518)"/>
<path id="Vector_11" d="M26.86 19.4385C27.5616 17.7328 27.9228 15.9047 27.9228 14.0586H34.9027C34.9027 21.8228 28.6519 28.1169 20.9413 28.1169C19.7338 28.1169 18.562 27.9626 17.4445 27.6724C18.0768 27.5083 18.6982 27.2995 19.3041 27.0468C20.998 26.3403 22.5371 25.3048 23.8335 23.9993C25.13 22.6939 26.1584 21.1441 26.86 19.4385Z" fill="#FBCF8E"/>
<path id="Vector_12" d="M0 14.0581C-2.6229e-07 15.9043 0.361122 17.7324 1.06275 19.4381C1.76438 21.1437 2.79276 22.6935 4.0892 23.9989C5.38564 25.3043 6.92474 26.3399 8.61861 27.0464C10.3125 27.7529 12.128 28.1165 13.9614 28.1165C15.7948 28.1165 17.6103 27.7529 19.3042 27.0464C20.9981 26.3399 22.5372 25.3043 23.8336 23.9989C25.1301 22.6935 26.1584 21.1437 26.8601 19.4381C27.5617 17.7324 27.9229 15.9043 27.9229 14.0581H23.5598C22.1141 14.0581 20.9866 15.2781 20.457 16.6327C20.442 16.6713 20.4265 16.7097 20.4107 16.7481C20.0599 17.6009 19.5458 18.3758 18.8975 19.0285C18.2493 19.6812 17.4797 20.199 16.6328 20.5523C15.7859 20.9055 14.8782 21.0873 13.9614 21.0873C13.0447 21.0873 12.137 20.9055 11.2901 20.5523C10.4431 20.199 9.67356 19.6812 9.02529 19.0285C8.37708 18.3758 7.8629 17.6009 7.51208 16.7481C7.16126 15.8953 6.98071 14.9812 6.98071 14.0581H0Z" fill="url(#paint1_linear_11_1518)"/>
<path id="Vector_13" d="M0.00158691 14.0584C0.00158691 6.29412 6.25231 0 13.9629 0C15.1702 0 16.3416 0.154285 17.459 0.444355C15.0615 1.06627 12.8498 2.32485 11.0693 4.11761C8.45109 6.75404 6.98017 10.3299 6.98017 14.0584H0.00158691Z" fill="#73E5E2"/>
</g>
<defs>
<linearGradient id="paint0_linear_11_1518" x1="34.9031" y1="7.02918" x2="6.98029" y2="7.02918" gradientUnits="userSpaceOnUse">
<stop stop-color="#73E5E2"/>
<stop offset="1" stop-color="#394F87"/>
</linearGradient>
<linearGradient id="paint1_linear_11_1518" x1="9.15408e-07" y1="21.0873" x2="27.9229" y2="21.0873" gradientUnits="userSpaceOnUse">
<stop stop-color="#FBDC8E"/>
<stop offset="1" stop-color="#FB958E"/>
</linearGradient>
<clipPath id="clip0_11_1518">
<rect width="144" height="29" fill="white"/>
</clipPath>
</defs>
</svg>
